<svg width="16" height="16" viewBox="0 0 16 16" fill="none" xmlns="http://www.w3.org/2000/svg">
<path d="M2.46875 8.95703H3.89478V10.0096H2.46875V8.95703Z" fill="#CC4D4B"/>
<path d="M15.0515 6.16846H0.947813C0.430813 6.16846 0.0117188 6.58755 0.0117188 7.10455V15.0637C0.0117188 15.5807 0.430813 15.9998 0.947813 15.9998H15.0515C15.5685 15.9998 15.9876 15.5807 15.9876 15.0637V7.10455C15.9876 6.58755 15.5685 6.16846 15.0515 6.16846ZM3.78703 13.9686H1.47009V13.0325H3.78703V13.9686ZM4.8306 10.1653C4.8306 10.5954 4.48066 10.9453 4.05053 10.9453H2.31244C1.88231 10.9453 1.53238 10.5954 1.53238 10.1653V8.80064C1.53238 8.37052 1.88231 8.02058 2.31244 8.02058H4.0505C4.48063 8.02058 4.83057 8.37052 4.83057 8.80064V10.1653H4.8306ZM7.36776 13.9686H5.05082V13.0325H7.36776V13.9686ZM10.9485 13.9686H8.63157V13.0325H10.9485V13.9686ZM14.5292 13.9686H12.2123V13.0325H14.5292V13.9686Z" fill="#CC4D4B"/>
<path d="M12.5779 2.27392L10.5781 0.274172C10.2126 -0.0913906 9.61987 -0.0913906 9.25427 0.274172L4.2959 5.23254H9.78827L12.5779 2.27392Z" fill="#CC4D4B"/>
<path d="M12.5207 5.23244L13.9844 3.68004L13.2404 2.93604L11.0752 5.23244H12.5207Z" fill="#CC4D4B"/>
<path d="M15.052 5.23247C15.253 5.23247 15.4466 5.26472 15.6283 5.32366L14.647 4.34229L13.8076 5.2325H15.052V5.23247Z" fill="#CC4D4B"/>
</svg>
