<svg width="16" height="20" viewBox="0 0 16 20" fill="none" xmlns="http://www.w3.org/2000/svg">
<path d="M8.00004 11.7588C7.67672 11.7588 7.41406 12.0214 7.41406 12.3448C7.41406 12.6681 7.67672 12.9307 8.00004 12.9307C8.32336 12.9307 8.58602 12.6681 8.58602 12.3448C8.58602 12.0214 8.32336 11.7588 8.00004 11.7588Z" fill="#CC4D4B"/>
<path d="M11.5155 8.24268H4.21797C2.09938 8.24268 0.381836 9.96013 0.381836 12.0788C0.381836 15.6978 2.7834 19.061 6.32168 19.821C11.2501 20.8796 15.6173 17.0927 15.6173 12.3445C15.6173 10.0792 13.7809 8.24268 11.5155 8.24268ZM8.58555 13.9945V17.0715C8.58555 17.3954 8.32344 17.6574 7.99958 17.6574C7.67567 17.6574 7.4136 17.3954 7.4136 17.0715V13.9945C6.73301 13.7518 6.24164 13.1075 6.24164 12.3445C6.24164 11.3752 7.0302 10.5866 7.99958 10.5866C8.96895 10.5866 9.75751 11.3752 9.75751 12.3445C9.75751 13.1075 9.26614 13.7518 8.58555 13.9945Z" fill="#CC4D4B"/>
<path d="M7.99942 0C5.08125 0 2.72559 2.35562 2.72559 5.27383V7.3234C3.20004 7.17391 3.69484 7.07086 4.21801 7.07086H5.06953V5.27383C5.06953 3.65652 6.38211 2.34395 7.99942 2.34395C9.61672 2.34395 10.9293 3.65652 10.9293 5.27383V7.07082H11.5153C12.1347 7.07082 12.7206 7.19777 13.2732 7.3948V5.27383C13.2732 2.35844 10.9118 0 7.99942 0Z" fill="#CC4D4B"/>
</svg>
