<svg width="18" height="18" viewBox="0 0 18 18" fill="none" xmlns="http://www.w3.org/2000/svg">
<path fill-rule="evenodd" clip-rule="evenodd" d="M15.9996 6.62147L16.5999 7.22147C17.075 7.68814 17.3335 8.32147 17.3335 8.98814C17.3418 9.65481 17.0834 10.289 16.6165 10.7631C16.611 10.7692 16.6054 10.7746 16.5999 10.78C16.5971 10.7827 16.5943 10.7854 16.5915 10.7881L15.9996 11.3798C15.7662 11.6131 15.6328 11.9298 15.6328 12.264V13.1215C15.6328 14.5048 14.5074 15.6306 13.1236 15.6306H12.265C11.9315 15.6306 11.6147 15.7631 11.3813 15.9965L10.7811 16.5965C10.2892 17.089 9.64734 17.3298 9.00544 17.3298C8.36354 17.3298 7.72165 17.089 7.2298 16.6056L6.62125 15.9965C6.38783 15.7631 6.07105 15.6306 5.73759 15.6306H4.87895C3.49511 15.6306 2.36971 14.5048 2.36971 13.1215V12.264C2.36971 11.9298 2.23632 11.6131 2.00291 11.3715L1.40269 10.7798C0.427335 9.80564 0.418999 8.21314 1.39435 7.23064L2.00291 6.62147C2.23632 6.38814 2.36971 6.07147 2.36971 5.72981V4.87981C2.36971 3.49647 3.49511 2.37231 4.87895 2.37231H5.73759C6.07105 2.37231 6.38783 2.23814 6.62125 2.00481L7.22146 1.40481C8.19682 0.422307 9.78906 0.422307 10.7728 1.39731L11.3813 2.00481C11.6147 2.23814 11.9315 2.37231 12.265 2.37231H13.1236C14.5074 2.37231 15.6328 3.49647 15.6328 4.87981V5.73897C15.6328 6.07147 15.7662 6.38814 15.9996 6.62147ZM6.85468 11.8715C7.05475 11.8715 7.23815 11.7965 7.37153 11.6548L11.6564 7.3723C11.9399 7.08897 11.9399 6.62147 11.6564 6.33814C11.373 6.05564 10.9145 6.05564 10.631 6.33814L6.34616 10.6215C6.06272 10.9048 6.06272 11.3715 6.34616 11.6548C6.47954 11.7965 6.66294 11.8715 6.85468 11.8715ZM10.4143 11.1381C10.4143 11.5465 10.7394 11.8715 11.1479 11.8715C11.548 11.8715 11.8731 11.5465 11.8731 11.1381C11.8731 10.739 11.548 10.4131 11.1479 10.4131C10.7394 10.4131 10.4143 10.739 10.4143 11.1381ZM6.86299 6.1298C7.26314 6.1298 7.58826 6.4548 7.58826 6.8548C7.58826 7.26397 7.26314 7.58813 6.86299 7.58813C6.46285 7.58813 6.1294 7.26397 6.1294 6.8548C6.1294 6.4548 6.46285 6.1298 6.86299 6.1298Z" fill="white"/>
</svg>
