<svg width="22" height="22" viewBox="0 0 22 22" fill="none" xmlns="http://www.w3.org/2000/svg">
<g id="Group">
<g id="Vector">
<mask id="path-1-inside-1_683_3037" fill="white">
<path d="M11 21.8332C5.01671 21.8332 0.166626 16.9831 0.166626 10.9998C0.166626 5.01659 5.01671 0.166504 11 0.166504C16.9832 0.166504 21.8333 5.01659 21.8333 10.9998C21.8333 16.9831 16.9832 21.8332 11 21.8332ZM11 19.6665C13.2985 19.6665 15.5029 18.7534 17.1283 17.1281C18.7535 15.5028 19.6666 13.2983 19.6666 10.9998C19.6666 8.7013 18.7535 6.4969 17.1283 4.87158C15.5029 3.24626 13.2985 2.33317 11 2.33317C8.70142 2.33317 6.49702 3.24626 4.87171 4.87158C3.24638 6.4969 2.33329 8.7013 2.33329 10.9998C2.33329 13.2983 3.24638 15.5028 4.87171 17.1281C6.49702 18.7534 8.70142 19.6665 11 19.6665ZM14.7916 7.20817L12.625 12.6248L7.20829 14.7915L9.37496 9.37484L14.7916 7.20817Z"/>
</mask>
<path d="M11 21.8332C5.01671 21.8332 0.166626 16.9831 0.166626 10.9998C0.166626 5.01659 5.01671 0.166504 11 0.166504C16.9832 0.166504 21.8333 5.01659 21.8333 10.9998C21.8333 16.9831 16.9832 21.8332 11 21.8332ZM11 19.6665C13.2985 19.6665 15.5029 18.7534 17.1283 17.1281C18.7535 15.5028 19.6666 13.2983 19.6666 10.9998C19.6666 8.7013 18.7535 6.4969 17.1283 4.87158C15.5029 3.24626 13.2985 2.33317 11 2.33317C8.70142 2.33317 6.49702 3.24626 4.87171 4.87158C3.24638 6.4969 2.33329 8.7013 2.33329 10.9998C2.33329 13.2983 3.24638 15.5028 4.87171 17.1281C6.49702 18.7534 8.70142 19.6665 11 19.6665ZM14.7916 7.20817L12.625 12.6248L7.20829 14.7915L9.37496 9.37484L14.7916 7.20817Z" fill="black"/>
<path d="M17.1283 17.1281L32.2127 32.2136L32.2137 32.2126L17.1283 17.1281ZM17.1283 4.87158L32.2137 -10.2129L32.2132 -10.2134L17.1283 4.87158ZM4.87171 4.87158L19.9566 19.9566L19.9567 19.9565L4.87171 4.87158ZM4.87171 17.1281L-10.2132 32.2131L-10.2128 32.2135L4.87171 17.1281ZM14.7916 7.20817L34.5991 15.1312L53.0861 -31.0863L6.86863 -12.5993L14.7916 7.20817ZM12.625 12.6248L20.548 32.4323L29.0369 29.0368L32.4325 20.5478L12.625 12.6248ZM7.20829 14.7915L-12.5992 6.8685L-31.0862 53.086L15.1313 34.599L7.20829 14.7915ZM9.37496 9.37484L1.45196 -10.4327L-7.03697 -7.03709L-10.4325 1.45184L9.37496 9.37484ZM11 0.499837C16.7988 0.499837 21.5 5.20101 21.5 10.9998H-21.1667C-21.1667 28.7652 -6.76537 43.1665 11 43.1665V0.499837ZM21.5 10.9998C21.5 16.7987 16.7988 21.4998 11 21.4998V-21.1668C-6.76537 -21.1668 -21.1667 -6.76549 -21.1667 10.9998H21.5ZM11 21.4998C5.20113 21.4998 0.499959 16.7987 0.499959 10.9998H43.1666C43.1666 -6.76549 28.7653 -21.1668 11 -21.1668V21.4998ZM0.499959 10.9998C0.499959 5.20101 5.20113 0.499837 11 0.499837V43.1665C28.7653 43.1665 43.1666 28.7652 43.1666 10.9998H0.499959ZM11 40.9998C18.9565 40.9998 26.5869 37.839 32.2127 32.2136L2.04383 2.0427C4.41899 -0.332309 7.64042 -1.66683 11 -1.66683V40.9998ZM32.2137 32.2126C37.8392 26.5868 41 18.9564 41 10.9998H-1.66671C-1.66671 7.6403 -0.332187 4.41887 2.04282 2.0437L32.2137 32.2126ZM41 10.9998C41 3.0431 37.8391 -4.58718 32.2137 -10.2129L2.04287 19.9561C-0.332082 17.581 -1.66671 14.3595 -1.66671 10.9998H41ZM32.2132 -10.2134C26.587 -15.8396 18.9563 -19.0002 11 -19.0002V23.6665C7.64068 23.6665 4.41889 22.3321 2.04332 19.9565L32.2132 -10.2134ZM11 -19.0002C3.04349 -19.0002 -4.58716 -15.8395 -10.2133 -10.2133L19.9567 19.9565C17.5812 22.332 14.3594 23.6665 11 23.6665V-19.0002ZM-10.2132 -10.2134C-15.8394 -4.58729 -19 3.04336 -19 10.9998H23.6666C23.6666 14.3592 22.3321 17.5811 19.9566 19.9566L-10.2132 -10.2134ZM-19 10.9998C-19 18.9561 -15.8395 26.5869 -10.2132 32.2131L19.9566 2.0432C22.3322 4.41877 23.6666 7.64056 23.6666 10.9998H-19ZM-10.2128 32.2135C-4.58706 37.8389 3.04322 40.9998 11 40.9998V-1.66683C14.3596 -1.66683 17.5811 -0.332204 19.9562 2.04275L-10.2128 32.2135ZM-5.01588 -0.714831L-7.18254 4.70184L32.4325 20.5478L34.5991 15.1312L-5.01588 -0.714831ZM4.70196 -7.18267L-0.714708 -5.016L15.1313 34.599L20.548 32.4323L4.70196 -7.18267ZM27.0158 22.7145L29.1825 17.2978L-10.4325 1.45184L-12.5992 6.8685L27.0158 22.7145ZM17.298 29.1823L22.7146 27.0157L6.86863 -12.5993L1.45196 -10.4327L17.298 29.1823Z" fill="#D0D5DD" mask="url(#path-1-inside-1_683_3037)"/>
</g>
</g>
</svg>
