<svg width="23" height="23" viewBox="0 0 23 23" fill="none" xmlns="http://www.w3.org/2000/svg">
<path d="M21.5012 20.0002V12.1741C21.5013 11.6297 21.3902 11.0909 21.1747 10.5909C20.9593 10.0909 20.644 9.64007 20.2482 9.26615L12.8752 2.29815C12.5039 1.94708 12.0122 1.75146 11.5012 1.75146C10.9902 1.75146 10.4986 1.94708 10.1272 2.29815L2.75422 9.26615C2.35844 9.64007 2.04317 10.0909 1.82772 10.5909C1.61226 11.0909 1.50116 11.6297 1.50122 12.1741V20.0002C1.50122 20.5306 1.71193 21.0393 2.08701 21.4144C2.46208 21.7894 2.97079 22.0002 3.50122 22.0002H19.5012C20.0317 22.0002 20.5404 21.7894 20.9154 21.4144C21.2905 21.0393 21.5012 20.5306 21.5012 20.0002Z" stroke="#D0D5DD" stroke-width="2" stroke-linecap="round" stroke-linejoin="round"/>
</svg>
