<svg width="40" height="40" viewBox="0 0 40 40" fill="none" xmlns="http://www.w3.org/2000/svg">
<rect width="40" height="40" rx="12" fill="url(#paint0_radial_215_10961)"/>
<rect width="40" height="40" rx="12" fill="url(#paint1_radial_215_10961)"/>
<rect width="40" height="40" rx="12" fill="url(#paint2_radial_215_10961)"/>
<path d="M20.0003 30.8332C17.0846 30.8332 16.6995 30.8205 15.5333 30.768C14.6347 30.7489 13.7457 30.5786 12.9036 30.2644C12.1806 29.9926 11.5257 29.566 10.985 29.0144C10.4336 28.4732 10.0073 27.8181 9.73574 27.0948C9.42152 26.2527 9.25128 25.3638 9.23216 24.4652C9.17969 23.3006 9.16699 22.9147 9.16699 19.9998C9.16699 17.1045 9.17969 16.7151 9.23216 15.5328C9.2503 14.6342 9.42028 13.7451 9.7349 12.9032C10.0076 12.1804 10.4345 11.5256 10.9858 10.9845C11.5266 10.4331 12.1815 10.0067 12.9045 9.73525C13.7465 9.42081 14.6355 9.25057 15.5341 9.23167C16.6995 9.1792 17.0855 9.1665 20.0003 9.1665C22.9152 9.1665 23.3011 9.1792 24.4648 9.23167C25.3643 9.25073 26.2541 9.42097 27.097 9.73525C27.8194 10.007 28.4736 10.4334 29.014 10.9845C29.5653 11.5256 29.9922 12.1804 30.2649 12.9032C30.5773 13.7457 30.7475 14.6344 30.7685 15.5328C30.821 16.6991 30.8337 17.0884 30.8337 19.9998C30.8337 22.9113 30.821 23.3006 30.7693 24.4669C30.7483 25.365 30.5781 26.2534 30.2658 27.0957C29.987 27.8152 29.5614 28.4686 29.0159 29.0144C28.4704 29.5601 27.8172 29.9862 27.0979 30.2653C26.2552 30.5794 25.3657 30.7497 24.4665 30.7688C23.3011 30.8213 22.9152 30.8332 20.0003 30.8332ZM19.0296 11.1131C17.0161 11.1131 16.6344 11.1284 15.6238 11.1741C14.9367 11.1819 14.2561 11.3085 13.612 11.5481C13.1414 11.7219 12.7157 11.999 12.3662 12.359C12.0063 12.7084 11.7292 13.1341 11.5554 13.6048C11.3164 14.2487 11.1902 14.9289 11.1822 15.6157C11.1305 16.7524 11.1195 17.0943 11.1195 19.9922C11.1195 22.8901 11.1305 23.2338 11.1822 24.3696C11.1902 25.0563 11.3164 25.7366 11.5554 26.3805C11.7293 26.8509 12.0063 27.2763 12.3662 27.6255C12.7157 27.9854 13.1414 28.2625 13.612 28.4363C14.2565 28.6745 14.9369 28.8007 15.6238 28.8095C16.774 28.862 17.1176 28.873 20.0012 28.873C22.8847 28.873 23.2275 28.862 24.3785 28.8095C25.0653 28.8015 25.7456 28.6753 26.3895 28.4363C26.8564 28.256 27.2805 27.98 27.6346 27.6261C27.9886 27.2722 28.2647 26.8482 28.4452 26.3813C28.6842 25.7374 28.8105 25.0572 28.8185 24.3704C28.871 23.2202 28.882 22.8766 28.882 19.9948C28.882 17.1129 28.871 16.7693 28.8185 15.6191C28.8105 14.9323 28.6842 14.2521 28.4452 13.6082C28.2712 13.1376 27.9942 12.712 27.6344 12.3623C27.2852 12.0023 26.8594 11.7255 26.3886 11.5524C25.7447 11.3134 25.0644 11.1871 24.3777 11.1791C23.241 11.1275 22.8991 11.1165 20.0003 11.1165H19.0296V11.1131ZM20.0003 25.5621C18.9 25.5621 17.8244 25.2358 16.9096 24.6245C15.9947 24.0132 15.2817 23.1443 14.8606 22.1277C14.4396 21.1111 14.3295 19.9925 14.5442 18.9134C14.7589 17.8342 15.2888 16.843 16.0669 16.065C16.845 15.287 17.8364 14.7573 18.9155 14.5427C19.9947 14.3281 21.1133 14.4384 22.1298 14.8596C23.1463 15.2808 24.0151 15.994 24.6263 16.9089C25.2375 17.8239 25.5636 18.8995 25.5634 19.9998C25.5614 21.4746 24.9746 22.8883 23.9317 23.931C22.8889 24.9737 21.4751 25.5603 20.0003 25.5621ZM20.0003 16.3884C19.2863 16.3888 18.5885 16.6008 17.995 16.9977C17.4015 17.3946 16.9389 17.9586 16.6659 18.6183C16.3929 19.278 16.3216 20.0039 16.461 20.7041C16.6004 21.4043 16.9443 22.0475 17.4493 22.5523C17.9542 23.0571 18.5975 23.4009 19.2977 23.5402C19.998 23.6795 20.7239 23.608 21.3835 23.3348C22.0432 23.0616 22.607 22.5989 23.0038 22.0053C23.4005 21.4117 23.6124 20.7138 23.6126 19.9998C23.6114 19.0423 23.2305 18.1243 22.5532 17.4474C21.876 16.7705 20.9579 16.39 20.0003 16.3893V16.3884ZM25.7835 15.5142C25.5262 15.514 25.2748 15.4375 25.0611 15.2944C24.8474 15.1513 24.6809 14.948 24.5827 14.7103C24.4845 14.4725 24.4591 14.211 24.5096 13.9588C24.5602 13.7066 24.6844 13.475 24.8666 13.2934C25.0488 13.1118 25.2807 12.9884 25.5331 12.9387C25.7855 12.889 26.0469 12.9152 26.2843 13.0142C26.5218 13.1131 26.7245 13.2803 26.8669 13.4945C27.0093 13.7087 27.085 13.9603 27.0843 14.2175C27.0832 14.5618 26.9456 14.8916 26.7018 15.1346C26.458 15.3777 26.1277 15.5142 25.7835 15.5142Z" fill="white"/>
<defs>
<radialGradient id="paint0_radial_215_10961" cx="0" cy="0" r="1" gradientUnits="userSpaceOnUse" gradientTransform="translate(14.2857 30) rotate(-55.3758) scale(36.4566)">
<stop stop-color="#B13589"/>
<stop offset="0.79309" stop-color="#C62F94"/>
<stop offset="1" stop-color="#8A3AC8"/>
</radialGradient>
<radialGradient id="paint1_radial_215_10961" cx="0" cy="0" r="1" gradientUnits="userSpaceOnUse" gradientTransform="translate(12.8571 41.4286) rotate(-65.1363) scale(32.2775)">
<stop stop-color="#E0E8B7"/>
<stop offset="0.444662" stop-color="#FB8A2E"/>
<stop offset="0.71474" stop-color="#E2425C"/>
<stop offset="1" stop-color="#E2425C" stop-opacity="0"/>
</radialGradient>
<radialGradient id="paint2_radial_215_10961" cx="0" cy="0" r="1" gradientUnits="userSpaceOnUse" gradientTransform="translate(-2.14285 1.42857) rotate(-8.1301) scale(55.5584 11.8834)">
<stop offset="0.156701" stop-color="#406ADC"/>
<stop offset="0.467799" stop-color="#6A45BE"/>
<stop offset="1" stop-color="#6A45BE" stop-opacity="0"/>
</radialGradient>
</defs>
</svg>
