<svg width="136" height="170" viewBox="0 0 136 170" fill="none" xmlns="http://www.w3.org/2000/svg">
<path opacity="0.1" fill-rule="evenodd" clip-rule="evenodd" d="M51.3113 17.3968C51.3113 8.17983 58.7831 0.708008 68 0.708008C77.2169 0.708008 84.6887 8.17981 84.6887 17.3968V17.8615C104.134 24.7345 118.066 43.2797 118.066 65.0789V101.371H118.347C118.347 101.371 118.411 109.708 123.982 109.708C126.081 109.708 128.305 110.56 130.261 111.622C134.218 113.77 136 118.266 136 122.769C136 131.725 128.739 138.986 119.783 138.986H15.8518C7.09711 138.986 0 131.889 0 123.134C0 118.429 2.00475 113.785 6.16644 111.59C8.15039 110.543 10.3125 109.708 12.1626 109.708C15.1586 109.708 16.9695 106.666 17.9338 104.257V65.0789C17.9338 43.2797 31.8657 24.7345 51.3113 17.8615V17.3968ZM67.5 169.208C78.8218 169.208 88 164.619 88 158.958C88 153.297 78.8218 148.708 67.5 148.708C56.1782 148.708 47 153.297 47 158.958C47 164.619 56.1782 169.208 67.5 169.208Z" fill="#CC4D4B"/>
</svg>
