<svg width="16" height="17" viewBox="0 0 16 17" fill="none" xmlns="http://www.w3.org/2000/svg">
<g clip-path="url(#clip0_810_106)">
<path d="M3.47691 2.82715L0.590445 4.35912C0.541008 4.38502 0.49432 4.41452 0.450195 4.4468L7.83116 8.29565L10.9219 6.7669L3.47691 2.82715Z" fill="white"/>
<path d="M15.9983 5.30176L12.3057 7.12813V9.18573C12.3057 9.44451 12.0959 9.65432 11.8371 9.65432C11.5783 9.65432 11.3685 9.44451 11.3685 9.18573V7.5917L8.29395 9.11241V16.5591C8.30357 16.5547 8.31332 16.5505 8.32285 16.5458L15.3911 12.9644C15.7666 12.7766 15.9997 12.3994 15.9997 11.9794V5.34316C15.9997 5.32926 15.9988 5.31554 15.9983 5.30176Z" fill="white"/>
<path d="M15.3915 4.35803L8.32623 0.778123L8.32329 0.776654C8.00869 0.620029 7.63488 0.623529 7.32323 0.786029L4.47754 2.29631L11.9579 6.25472L15.5685 4.46887C15.5137 4.42712 15.4548 4.38965 15.3915 4.35803Z" fill="white"/>
<path d="M0.00221875 5.27051C0.00096875 5.29198 0 5.31348 0 5.33516V11.9877C0 12.399 0.22625 12.7726 0.5905 12.9634L7.32003 16.535L7.32306 16.5366C7.33425 16.5424 7.34569 16.5476 7.35703 16.553V9.10569L0.00221875 5.27051Z" fill="white"/>
</g>
<defs>
<clipPath id="clip0_810_106">
<rect width="16" height="16" fill="white" transform="translate(0 0.610352)"/>
</clipPath>
</defs>
</svg>
