<svg width="31" height="30" viewBox="0 0 31 30" fill="none" xmlns="http://www.w3.org/2000/svg">
<path d="M20.8333 17.9167C20.8333 17.5851 20.965 17.2672 21.1995 17.0328C21.4339 16.7984 21.7518 16.6667 22.0833 16.6667H25.4167C25.7482 16.6667 26.0661 16.7984 26.3006 17.0328C26.535 17.2672 26.6667 17.5851 26.6667 17.9167C26.6667 18.2482 26.535 18.5661 26.3006 18.8005C26.0661 19.035 25.7482 19.1667 25.4167 19.1667H22.0833C21.7518 19.1667 21.4339 19.035 21.1995 18.8005C20.965 18.5661 20.8333 18.2482 20.8333 17.9167ZM0 3.33333H0.0233332C0.125822 2.41665 0.562567 1.56989 1.25007 0.954953C1.93758 0.340012 2.8276 2.78677e-05 3.75 0H22.9167C23.4091 0 23.8968 0.0969967 24.3517 0.285452C24.8067 0.473907 25.2201 0.75013 25.5683 1.09835C25.9165 1.44657 26.1928 1.85997 26.3812 2.31494C26.5697 2.76991 26.6667 3.25754 26.6667 3.75V5.145C27.8531 5.42668 28.9097 6.10031 29.6659 7.05694C30.422 8.01358 30.8333 9.1973 30.8333 10.4167V24.5833C30.8333 26.0199 30.2627 27.3977 29.2468 28.4135C28.231 29.4293 26.8533 30 25.4167 30H5.41667C3.98008 30 2.60233 29.4293 1.5865 28.4135C0.570683 27.3977 0 26.0199 0 24.5833V3.33333ZM25.4167 7.5H2.5V24.5833C2.5 26.1933 3.80667 27.5 5.41667 27.5H25.4167C26.1902 27.5 26.9321 27.1927 27.4791 26.6457C28.026 26.0987 28.3333 25.3569 28.3333 24.5833V10.4167C28.3333 9.64312 28.026 8.90125 27.4791 8.35427C26.9321 7.80729 26.1902 7.5 25.4167 7.5ZM24.1667 5V3.75C24.1667 3.41848 24.035 3.10054 23.8006 2.86612C23.5661 2.6317 23.2482 2.5 22.9167 2.5H3.75C3.41848 2.5 3.10054 2.6317 2.86612 2.86612C2.6317 3.10054 2.5 3.41848 2.5 3.75C2.5 4.08152 2.6317 4.39946 2.86612 4.63388C3.10054 4.8683 3.41848 5 3.75 5H24.1667Z" fill="#CC4D4B"/>
</svg>
