<svg width="20" height="20" viewBox="0 0 20 20" fill="none" xmlns="http://www.w3.org/2000/svg">
<path fill-rule="evenodd" clip-rule="evenodd" d="M17.5002 3.33366H14.1669V1.66699H12.5002V3.33366H7.5002V1.66699H5.83354V3.33366H2.5002C2.03997 3.33366 1.66687 3.70675 1.66687 4.16699V17.5003C1.66687 17.9606 2.03997 18.3337 2.5002 18.3337H17.5002C17.9604 18.3337 18.3335 17.9606 18.3335 17.5003V4.16699C18.3335 3.70675 17.9604 3.33366 17.5002 3.33366ZM6.66687 10.8337V9.16699H5.0002V10.8337H6.66687ZM6.66687 12.5003V14.167H5.0002V12.5003H6.66687ZM10.8335 9.16699H9.16687V10.8337H10.8335V9.16699ZM9.16687 12.5003H10.8335V14.167H9.16687V12.5003ZM15.0002 10.8337V9.16699H13.3335V10.8337H15.0002ZM15.0002 12.5003V14.167H13.3335V12.5003H15.0002ZM3.33354 6.66699H16.6669V16.667H3.33354V6.66699Z" fill="#CC4D4B"/>
</svg>
