<svg width="21" height="21" viewBox="0 0 21 21" fill="none" xmlns="http://www.w3.org/2000/svg">
<path fill-rule="evenodd" clip-rule="evenodd" d="M20.814 18.899L16.531 14.617C17.8082 13.0237 18.5029 11.042 18.5 9C18.5 4.032 14.468 0 9.5 0C4.532 0 0.5 4.032 0.5 9C0.5 13.968 4.532 18 9.5 18C11.542 18.0029 13.5237 17.3082 15.117 16.031L19.399 20.314L20.814 18.899ZM16.5 9C16.5029 10.8204 15.7941 12.5699 14.525 13.875L14.375 14.025C13.0699 15.2941 11.3204 16.0029 9.5 16C5.632 16 2.5 12.867 2.5 9C2.5 5.132 5.632 2 9.5 2C13.367 2 16.5 5.132 16.5 9Z" fill="#D0D5DD"/>
</svg>
