<svg width="40" height="40" viewBox="0 0 40 40" fill="none" xmlns="http://www.w3.org/2000/svg">
<rect width="40" height="40" rx="12" fill="#252525"/>
<path d="M16.5392 28.5C14.1322 28.5 11.8885 27.7841 10 26.5488C11.6034 26.6549 14.4331 26.4008 16.1931 24.6841C13.5454 24.5598 12.3514 22.4833 12.1956 21.5958C12.4206 21.6846 13.4935 21.7911 14.0992 21.5426C11.0535 20.7617 10.5863 18.0284 10.6901 17.1942C11.2612 17.6024 12.2302 17.7444 12.611 17.7089C9.77291 15.6324 10.7939 12.5086 11.2958 11.8342C13.3325 14.7196 16.3848 16.3402 20.161 16.4304C20.0898 16.111 20.0522 15.7786 20.0522 15.4371C20.0522 12.9866 21.9891 11 24.3785 11C25.6269 11 26.7518 11.5423 27.5414 12.4098C28.3757 12.2099 29.6312 11.7419 30.245 11.3372C29.9356 12.4731 28.9724 13.4207 28.3898 13.7719C28.3946 13.7839 28.3851 13.7599 28.3898 13.7719C28.9016 13.6927 30.2863 13.4206 30.8333 13.0411C30.5628 13.6792 29.5417 14.7402 28.7037 15.3342C28.8596 22.3659 23.5986 28.5 16.5392 28.5Z" fill="white"/>
</svg>
