<svg width="40" height="40" viewBox="0 0 40 40" fill="none" xmlns="http://www.w3.org/2000/svg">
<rect width="40" height="40" rx="12" fill="url(#paint0_linear_215_10970)"/>
<path d="M8.33301 31.6667L10.0404 25.4559C8.71857 23.1716 8.19074 20.517 8.53874 17.9037C8.88674 15.2904 10.0911 12.8643 11.9652 11.0017C13.8392 9.13908 16.2782 7.94391 18.9041 7.60149C21.5299 7.25907 24.1959 7.78853 26.4887 9.10779C28.7815 10.427 30.573 12.4624 31.5855 14.8983C32.598 17.3342 32.7749 20.0345 32.0888 22.5807C31.4027 25.1269 29.8919 27.3766 27.7907 28.9811C25.6894 30.5856 23.1151 31.4552 20.4668 31.4552H20.4626C18.4538 31.4536 16.4771 30.9525 14.7123 29.9973L8.33301 31.6667ZM15.0074 27.8328L15.3725 28.0485C17.4785 29.2894 19.9685 29.7187 22.3711 29.2552C24.7737 28.7917 26.9222 27.4676 28.4101 25.5334C29.898 23.5992 30.6219 21.1891 30.4449 18.7594C30.2678 16.3297 29.2021 14.0488 27.4494 12.3486C25.6968 10.6484 23.3787 9.64667 20.9341 9.53314C18.4894 9.41961 16.0878 10.2021 14.1837 11.7325C12.2796 13.263 11.0052 15.4351 10.6017 17.8379C10.1981 20.2407 10.6935 22.7073 11.994 24.771L12.2326 25.147L11.2208 28.8215L15.0057 27.8328H15.0074ZM23.5941 25.231C23.1994 25.2331 22.8067 25.1736 22.4305 25.0547C21.8484 24.8749 21.2762 24.6645 20.7164 24.4244C18.6582 23.4154 16.9047 21.8825 15.6339 19.9812L15.5841 19.9081C14.8732 19.0208 14.4445 17.9425 14.3531 16.8112C14.3423 16.3594 14.4248 15.9103 14.5955 15.4916C14.7662 15.0729 15.0215 14.6936 15.3455 14.3772L15.4045 14.3134C15.5047 14.1989 15.6277 14.1065 15.7658 14.042C15.9038 13.9776 16.0539 13.9425 16.2064 13.9391C16.3995 13.9391 16.6035 13.9391 16.7822 13.95H16.8775C17.063 13.95 17.2603 13.9894 17.4593 14.4628C17.5436 14.655 17.6557 14.937 17.7797 15.2366V15.245C18.0385 15.8728 18.332 16.5837 18.3825 16.6853C18.4306 16.7636 18.4581 16.8527 18.4625 16.9443C18.467 17.036 18.4481 17.1273 18.4078 17.2098L18.3665 17.2937C18.3012 17.4454 18.214 17.5868 18.1077 17.7134C18.0571 17.7721 18.0048 17.8351 17.9525 17.8989C17.8514 18.0223 17.7468 18.1507 17.6566 18.2346C17.5116 18.379 17.3472 18.5426 17.5242 18.8456C17.9753 19.6155 18.5391 20.3142 19.197 20.9187C19.8528 21.5057 20.6037 21.9779 21.4179 22.3152C21.5022 22.3513 21.5663 22.379 21.6152 22.4034C21.7153 22.4603 21.8272 22.4934 21.9423 22.4999C22.0055 22.4979 22.0674 22.4817 22.1234 22.4527C22.1795 22.4236 22.2282 22.3824 22.2661 22.332C22.4044 22.1742 23.0089 21.4709 23.218 21.157C23.2515 21.0913 23.302 21.0357 23.3642 20.9959C23.4264 20.9561 23.4982 20.9335 23.5722 20.9304C23.6834 20.938 23.7925 20.9641 23.8951 21.0076C24.1657 21.1067 25.6058 21.81 25.949 21.9812L26.1176 22.0651C26.2754 22.118 26.4169 22.2105 26.5282 22.3337C26.6114 22.8161 26.5504 23.3123 26.3529 23.7605C26.1323 24.1254 25.8379 24.4407 25.4884 24.6864C25.1389 24.932 24.7419 25.1026 24.3226 25.1873C24.0812 25.2207 23.8377 25.2361 23.5941 25.2335V25.231Z" fill="#FDFDFD"/>
<defs>
<linearGradient id="paint0_linear_215_10970" x1="37.5" y1="5" x2="-9.68575e-07" y2="40" gradientUnits="userSpaceOnUse">
<stop stop-color="#5BD066"/>
<stop offset="1" stop-color="#27B43E"/>
</linearGradient>
</defs>
</svg>
